<?xml version="1.0" standalone="no"?>
<!DOCTYPE svg PUBLIC "-//W3C//DTD SVG 20010904//EN"
 "http://www.w3.org/TR/2001/REC-SVG-20010904/DTD/svg10.dtd">
<svg version="1.0" xmlns="http://www.w3.org/2000/svg"
 width="1024.000000pt" height="1024.000000pt" viewBox="0 0 1024.000000 1024.000000"
 preserveAspectRatio="xMidYMid meet">

<g transform="translate(0.000000,1024.000000) scale(0.100000,-0.100000)"
fill="#000000" stroke="none">
<path d="M3226 7503 c-2 -10 -10 -43 -16 -75 l-11 -56 -64 -27 -64 -28 -37 29
c-83 66 -73 67 -153 -9 l-50 -48 40 -61 c42 -66 42 -69 5 -147 -22 -47 -36
-55 -118 -66 l-48 -6 0 -79 0 -79 58 -11 c79 -15 81 -17 91 -42 5 -13 17 -42
26 -65 l17 -41 -36 -60 c-20 -33 -36 -64 -36 -69 0 -9 114 -113 125 -113 4 0
31 18 61 39 l54 39 64 -25 63 -25 12 -57 c21 -98 14 -91 96 -91 l74 0 11 58
c6 31 13 64 16 73 3 10 35 27 77 42 l72 26 52 -41 c60 -46 55 -47 143 30 l44
40 -38 62 -39 63 22 67 21 67 73 19 72 19 3 54 c4 73 -4 101 -28 101 -38 0
-120 22 -120 32 0 6 -12 36 -26 68 l-26 58 36 53 c20 30 36 59 36 65 0 13
-104 114 -118 114 -5 0 -32 -18 -59 -39 l-49 -40 -70 25 c-38 14 -72 30 -76
36 -3 7 -12 40 -18 75 l-12 63 -73 0 c-62 0 -74 -3 -79 -17z m146 -29 c4 -16
12 -48 18 -70 10 -40 12 -42 85 -68 81 -29 79 -29 143 22 l43 35 54 -53 54
-53 -25 -41 c-48 -78 -48 -81 -27 -128 11 -24 24 -53 27 -66 9 -28 30 -39 94
-48 l52 -7 0 -68 0 -68 -57 -12 c-32 -7 -63 -16 -69 -21 -13 -10 -54 -117 -54
-141 0 -9 14 -38 30 -64 17 -26 30 -52 30 -59 0 -7 -23 -32 -52 -57 l-52 -45
-58 41 -57 40 -38 -16 c-21 -9 -49 -19 -63 -23 -46 -12 -59 -35 -75 -126 l-6
-38 -64 0 -64 0 -10 38 c-6 20 -11 47 -11 58 0 34 -30 60 -93 83 l-58 21 -46
-32 c-25 -18 -52 -37 -59 -43 -10 -7 -27 3 -64 40 -27 27 -50 56 -50 65 0 8
14 35 30 60 36 54 36 59 6 134 -28 67 -30 70 -108 86 l-58 11 0 69 0 68 53 7
c28 3 60 9 71 12 17 5 76 117 76 145 0 7 -16 37 -35 65 -19 29 -35 56 -35 61
0 5 25 31 55 57 l55 47 51 -43 51 -42 56 19 c74 24 97 49 106 108 11 72 10 71
79 70 59 -2 62 -3 69 -30z"/>
<path d="M3202 7148 c-56 -27 -116 -97 -132 -153 -15 -54 -8 -140 15 -184 41
-81 139 -141 229 -141 56 0 157 49 189 92 86 112 72 261 -32 349 -71 62 -186
78 -269 37z m203 -7 c90 -42 139 -121 139 -221 0 -111 -63 -194 -171 -226 -69
-20 -131 -10 -191 30 -202 135 -111 432 133 435 29 0 67 -7 90 -18z"/>
<path d="M2220 6713 c-6 -21 -18 -76 -28 -123 l-18 -85 -76 -21 c-41 -12 -97
-31 -123 -43 -26 -12 -51 -21 -55 -21 -4 0 -47 27 -96 60 -49 33 -95 60 -103
60 -15 0 -201 -148 -208 -166 -3 -7 14 -52 36 -100 23 -48 41 -91 41 -97 0 -6
-17 -31 -39 -57 -21 -25 -55 -72 -76 -105 -21 -33 -44 -66 -53 -72 -10 -8 -49
-13 -106 -13 -50 0 -96 -4 -103 -8 -14 -9 -85 -249 -81 -276 2 -12 32 -35 83
-64 l80 -45 1 -149 1 -149 -78 -55 c-43 -30 -81 -59 -84 -64 -6 -10 72 -248
89 -269 10 -13 82 -11 171 5 28 5 34 1 67 -48 21 -29 65 -82 99 -117 l62 -63
-32 -100 c-25 -79 -29 -103 -20 -115 14 -16 163 -125 195 -141 19 -10 32 -3
109 60 87 70 89 71 124 60 20 -5 74 -21 121 -35 l85 -24 16 -74 c8 -41 21 -91
28 -111 l13 -38 128 0 c113 0 130 2 139 18 5 9 19 62 30 117 12 54 23 100 24
101 1 1 34 11 72 22 66 20 237 100 296 138 l27 17 83 -84 c119 -120 230 -173
374 -180 l56 -3 2 137 c1 75 -1 137 -4 137 -21 0 -109 74 -179 151 l-83 90 22
37 c53 87 121 243 141 320 33 134 45 283 32 404 -35 322 -193 595 -449 778
-107 75 -177 112 -307 159 l-99 36 -18 85 c-10 47 -23 102 -29 123 l-11 37
-139 0 -139 0 -11 -37z m289 -10 c6 -21 15 -60 21 -88 27 -124 26 -122 83
-140 127 -40 292 -124 386 -196 55 -42 175 -167 217 -225 53 -74 115 -196 143
-283 73 -224 73 -487 -1 -706 -24 -72 -94 -214 -122 -250 l-21 -26 -148 155
c-157 165 -240 229 -349 270 -83 31 -200 48 -311 44 l-88 -3 200 -220 200
-220 -57 -27 c-83 -39 -178 -58 -289 -58 -184 0 -337 62 -463 189 -118 119
-184 261 -196 426 -29 376 257 688 631 688 310 0 579 -215 645 -514 20 -90 8
-278 -23 -366 -14 -40 -23 -73 -20 -73 12 0 44 97 59 181 21 119 13 214 -27
333 -83 250 -290 413 -565 448 -83 11 -107 10 -182 -5 -241 -48 -418 -202
-500 -436 -23 -67 -27 -91 -27 -206 0 -143 16 -213 76 -325 130 -245 407 -388
682 -350 87 12 190 42 212 61 5 5 13 9 18 9 14 0 -79 -115 -130 -160 -113
-101 -260 -182 -410 -225 -77 -23 -86 -23 -124 -10 -23 8 -49 15 -58 15 -9 0
-52 -29 -96 -65 -44 -35 -85 -65 -91 -65 -9 0 -96 57 -177 116 -33 24 -33 42
-2 134 14 40 25 80 25 89 0 8 -22 38 -49 66 -28 27 -72 79 -98 115 -54 73 -57
73 -189 56 l-61 -8 -37 108 c-58 167 -60 151 31 219 43 32 80 60 82 61 2 2 3
70 2 151 -1 99 -6 152 -14 160 -7 6 -39 26 -72 44 -95 50 -92 39 -50 185 20
71 42 132 48 136 7 4 54 8 105 8 105 0 98 -4 169 105 25 39 58 84 74 100 16
17 29 39 29 49 0 10 -14 48 -31 84 -54 117 -55 105 9 159 31 26 59 50 62 54
24 26 81 59 92 53 7 -4 51 -32 97 -63 l84 -55 61 23 c33 13 95 33 136 45 l75
22 20 94 c12 52 24 107 28 123 l7 27 130 0 129 0 10 -37z"/>
<path d="M6329 5821 c-23 -23 -29 -38 -29 -71 0 -33 6 -48 29 -71 25 -25 37
-29 81 -29 44 0 56 4 81 29 23 23 29 38 29 71 0 33 -6 48 -29 71 -25 25 -37
29 -81 29 -44 0 -56 -4 -81 -29z"/>
<path d="M3970 5807 c-174 -59 -293 -183 -344 -356 -20 -69 -21 -209 -1 -284
42 -162 165 -293 325 -347 116 -39 299 -23 400 35 24 13 27 12 97 -58 l73 -71
60 59 60 59 -65 66 -64 65 29 43 c169 252 77 627 -186 758 -120 59 -268 71
-384 31z m287 -187 c76 -37 135 -102 164 -179 29 -77 24 -213 -10 -284 l-24
-49 -58 58 -59 59 -60 -60 -59 -60 49 -53 49 -53 -27 -11 c-15 -6 -58 -13 -97
-15 -97 -7 -171 21 -241 92 -42 42 -56 65 -73 120 -96 311 170 570 446 435z"/>
<path d="M6820 5527 c-25 -8 -65 -20 -89 -27 l-43 -14 6 -75 c8 -84 10 -89 28
-73 7 5 46 20 87 32 55 17 89 21 135 18 73 -6 108 -26 130 -73 29 -61 30 -61
-121 -68 -148 -6 -204 -20 -261 -64 -67 -51 -92 -164 -53 -248 62 -138 285
-180 418 -79 l33 25 0 -30 0 -31 85 0 85 0 0 268 c0 294 -4 314 -66 376 -57
56 -99 70 -219 73 -70 2 -127 -2 -155 -10z m270 -439 c0 -86 -72 -148 -172
-148 -71 0 -118 33 -118 83 1 70 54 96 193 97 l97 0 0 -32z"/>
<path d="M7711 5527 c-19 -6 -51 -27 -73 -47 l-38 -37 0 44 0 43 -85 0 -85 0
0 -355 0 -355 84 0 85 0 3 228 c3 208 5 230 24 262 60 103 212 108 269 10 18
-32 20 -55 23 -267 l3 -233 85 0 84 0 0 253 c0 190 -4 266 -14 301 -34 112
-117 166 -251 165 -44 -1 -95 -6 -114 -12z"/>
<path d="M8437 5526 c-93 -33 -170 -113 -204 -211 -25 -71 -24 -213 2 -282 47
-129 140 -200 276 -210 97 -7 174 14 225 62 20 19 39 35 41 35 11 0 -11 -119
-28 -152 -58 -114 -212 -130 -421 -43 -14 5 -23 -5 -47 -54 -33 -68 -32 -71
46 -110 108 -54 269 -67 386 -31 79 24 156 89 193 161 37 73 44 154 44 512 l0
327 -85 0 -85 0 0 -41 0 -41 -35 31 c-20 17 -52 38 -72 46 -45 19 -184 19
-236 1z m226 -150 c68 -29 107 -98 107 -190 0 -109 -46 -183 -125 -205 -60
-17 -86 -14 -145 17 -71 36 -100 87 -100 179 0 98 38 169 105 199 39 17 117
18 158 0z"/>
<path d="M4760 5313 c0 -250 10 -328 49 -398 41 -74 102 -109 198 -114 86 -4
146 14 199 61 l34 30 0 -36 0 -36 85 0 85 0 0 355 0 355 -84 0 -85 0 -3 -232
c-3 -258 -7 -275 -67 -315 -40 -27 -117 -31 -161 -8 -17 9 -39 33 -50 55 -18
36 -20 59 -20 270 l0 230 -90 0 -90 0 0 -217z"/>
<path d="M5530 5524 c0 -4 54 -82 120 -175 l120 -169 -83 -113 c-46 -61 -105
-142 -131 -179 l-48 -68 100 0 99 0 77 116 77 116 77 -116 77 -115 98 -1 c79
0 96 3 90 13 -4 7 -59 86 -120 175 -62 88 -113 166 -113 171 0 6 52 81 116
167 63 86 118 163 121 170 4 11 -13 14 -90 14 l-96 0 -73 -102 c-40 -56 -77
-102 -83 -102 -5 -1 -40 45 -79 102 l-69 102 -94 0 c-51 0 -93 -3 -93 -6z"/>
<path d="M6320 5175 l0 -355 85 0 85 0 0 355 0 355 -85 0 -85 0 0 -355z"/>
<path d="M4330 4392 c-71 -39 -100 -139 -62 -212 20 -38 89 -80 132 -80 30 0
110 35 110 48 0 5 -7 15 -15 22 -11 9 -19 8 -37 -4 -26 -19 -67 -21 -101 -5
-24 11 -38 31 -51 73 -9 28 12 94 37 111 27 19 80 19 117 0 27 -14 30 -14 40
5 25 46 -104 78 -170 42z"/>
<path d="M5352 4393 c-73 -36 -103 -133 -64 -210 28 -55 65 -77 128 -77 89 0
144 57 144 149 0 116 -107 188 -208 138z m123 -56 c55 -47 36 -166 -30 -183
-79 -20 -138 52 -114 140 18 66 92 88 144 43z"/>
<path d="M5972 4393 c-47 -23 -75 -67 -79 -127 -6 -68 19 -114 78 -144 103
-54 209 14 209 134 0 114 -109 186 -208 137z m123 -56 c55 -47 36 -166 -30
-183 -31 -8 -69 1 -89 21 -41 41 -37 139 7 170 32 22 81 19 112 -8z"/>
<path d="M6332 4390 c-54 -33 -74 -75 -70 -147 4 -70 27 -105 85 -129 44 -19
80 -17 131 6 l42 19 0 66 0 65 -66 0 c-62 0 -65 -1 -62 -22 3 -20 9 -23 41
-21 36 1 37 0 37 -32 0 -25 -5 -34 -22 -39 -44 -11 -77 -6 -105 18 -24 21 -28
31 -28 79 0 45 5 60 24 81 27 28 85 35 122 15 15 -7 24 -7 35 2 21 17 18 25
-20 43 -46 22 -104 20 -144 -4z"/>
<path d="M3670 4380 c0 -17 7 -20 45 -20 l45 0 0 -125 0 -125 25 0 25 0 0 125
0 125 45 0 c38 0 45 3 45 20 0 19 -7 20 -115 20 -108 0 -115 -1 -115 -20z"/>
<path d="M3980 4255 l0 -145 95 0 c92 0 95 1 95 23 0 21 -4 22 -67 22 l-67 0
-1 38 0 37 63 0 c60 0 62 1 62 25 0 24 -2 25 -65 25 l-65 0 0 40 0 40 70 0
c63 0 70 2 70 20 0 19 -7 20 -95 20 l-95 0 0 -145z"/>
<path d="M4600 4255 l0 -145 25 0 c24 0 25 3 25 60 l0 60 65 0 65 0 0 -60 c0
-57 1 -60 25 -60 l25 0 0 145 0 145 -25 0 c-24 0 -25 -3 -25 -60 l0 -60 -65 0
-65 0 0 60 c0 57 -1 60 -25 60 l-25 0 0 -145z"/>
<path d="M4940 4255 l0 -145 25 0 25 0 0 101 0 102 73 -101 c54 -77 77 -102
95 -102 22 0 22 1 22 145 l0 145 -25 0 c-24 0 -24 -1 -27 -96 l-3 -95 -68 95
c-54 76 -74 96 -93 96 l-24 0 0 -145z"/>
<path d="M5643 4255 l-3 -145 95 0 95 0 0 26 c0 25 -1 26 -65 22 l-65 -3 0
123 0 122 -27 0 -28 0 -2 -145z"/>
<path d="M6601 4378 c6 -13 29 -53 50 -90 33 -55 39 -76 39 -122 0 -56 0 -56
30 -56 30 0 30 0 30 60 0 53 5 68 50 145 l49 86 -32 -3 c-28 -3 -36 -11 -66
-67 l-34 -64 -35 67 c-30 58 -38 66 -64 66 -27 0 -28 -2 -17 -22z"/>
<path d="M7080 4255 l0 -145 90 0 c89 0 90 0 90 25 0 24 -2 25 -65 25 l-65 0
0 120 0 120 -25 0 -25 0 0 -145z"/>
<path d="M7350 4255 l0 -145 25 0 25 0 0 145 0 145 -25 0 -25 0 0 -145z"/>
<path d="M7510 4255 l0 -145 26 0 25 0 -3 100 c-2 55 -1 100 2 100 3 -1 25
-30 50 -65 25 -36 47 -65 50 -65 3 0 25 31 50 68 l45 67 3 -102 c3 -102 3
-103 27 -103 l25 0 0 145 0 145 -33 0 c-29 0 -36 -6 -72 -65 -22 -35 -43 -64
-46 -65 -4 0 -26 29 -49 65 -36 55 -47 65 -71 65 l-29 0 0 -145z"/>
<path d="M7920 4255 l0 -145 25 0 25 0 0 145 0 145 -25 0 -25 0 0 -145z"/>
<path d="M8060 4381 c0 -16 8 -20 41 -23 l41 -3 -1 -122 -2 -123 30 0 31 0 0
125 0 125 40 0 c33 0 40 3 40 20 0 19 -7 20 -110 20 -102 0 -110 -1 -110 -19z"/>
<path d="M8370 4255 l0 -145 95 0 c92 0 95 1 95 23 0 21 -3 22 -70 19 l-70 -4
0 41 0 41 65 0 c63 0 65 1 65 25 0 24 -2 25 -65 25 l-65 0 0 40 0 40 70 0 c63
0 70 2 70 20 0 19 -7 20 -95 20 l-95 0 0 -145z"/>
<path d="M8650 4255 l0 -145 70 0 c39 0 85 6 104 14 102 43 112 190 17 253
-28 19 -48 23 -112 23 l-79 0 0 -145z m132 95 c47 -14 68 -43 68 -98 0 -60
-32 -92 -95 -92 l-45 0 0 100 c0 111 -1 110 72 90z"/>
</g>
</svg>
